<?xml version="1.0" encoding="UTF-8"?>
<svg xmlns="http://www.w3.org/2000/svg" width="1600" height="900" viewBox="0 0 1600 900">
  <defs>
    <linearGradient id="s" x1="0" y1="0" x2="0" y2="1">
      <stop offset="0%" stop-color="#f8f5ff"/>
      <stop offset="100%" stop-color="#efe8f8"/>
    </linearGradient>
  </defs>
  <rect width="1600" height="900" fill="url(#s)"/>
  <!-- Floral arch -->
  <path d="M300 700 Q300 200 800 180 Q1300 200 1300 700" fill="none" stroke="#c4a8d0" stroke-width="30" opacity="0.15"/>
  <!-- Flowers on arch -->
  <circle cx="350" cy="500" r="18" fill="#e8a0b0" opacity="0.3"/>
  <circle cx="380" cy="400" r="15" fill="#f0b0c0" opacity="0.28"/>
  <circle cx="420" cy="320" r="16" fill="#d49098" opacity="0.25"/>
  <circle cx="500" cy="250" r="14" fill="#e8a0b0" opacity="0.25"/>
  <circle cx="620" cy="200" r="15" fill="#f5c0d0" opacity="0.28"/>
  <circle cx="800" cy="180" r="16" fill="#e8a0b0" opacity="0.3"/>
  <circle cx="980" cy="200" r="15" fill="#f0b0c0" opacity="0.28"/>
  <circle cx="1100" cy="250" r="14" fill="#d49098" opacity="0.25"/>
  <circle cx="1180" cy="320" r="16" fill="#e8a0b0" opacity="0.25"/>
  <circle cx="1220" cy="400" r="15" fill="#f5c0d0" opacity="0.28"/>
  <circle cx="1250" cy="500" r="18" fill="#e8a0b0" opacity="0.3"/>
  <!-- Leaves -->
  <ellipse cx="400" cy="360" rx="12" ry="6" fill="#8aae6a" opacity="0.2" transform="rotate(40 400 360)"/>
  <ellipse cx="560" cy="225" rx="12" ry="6" fill="#8aae6a" opacity="0.18" transform="rotate(-30 560 225)"/>
  <ellipse cx="1040" cy="225" rx="12" ry="6" fill="#8aae6a" opacity="0.18" transform="rotate(30 1040 225)"/>
  <ellipse cx="1200" cy="360" rx="12" ry="6" fill="#8aae6a" opacity="0.2" transform="rotate(-40 1200 360)"/>
</svg>
