<?xml version="1.0" encoding="UTF-8"?>
<svg xmlns="http://www.w3.org/2000/svg" width="1600" height="900" viewBox="0 0 1600 900">
  <defs>
    <linearGradient id="s" x1="0" y1="0" x2="0" y2="1">
      <stop offset="0%" stop-color="#fff8f0"/>
      <stop offset="100%" stop-color="#f8f0e8"/>
    </linearGradient>
  </defs>
  <rect width="1600" height="900" fill="url(#s)"/>
  <!-- Gold confetti scattered -->
  <rect x="200" y="150" width="8" height="12" rx="1" fill="#d4a030" opacity="0.25" transform="rotate(30 204 156)"/>
  <rect x="450" y="200" width="6" height="10" rx="1" fill="#c4900" opacity="0.2" transform="rotate(-20 453 205)"/>
  <rect x="700" y="120" width="8" height="12" rx="1" fill="#d4a030" opacity="0.22" transform="rotate(45 704 126)"/>
  <rect x="1000" y="180" width="6" height="10" rx="1" fill="#c89828" opacity="0.2" transform="rotate(-35 1003 185)"/>
  <rect x="1300" y="140" width="8" height="12" rx="1" fill="#d4a030" opacity="0.25" transform="rotate(15 1304 146)"/>
  <rect x="350" y="350" width="6" height="10" rx="1" fill="#c89828" opacity="0.18" transform="rotate(55 353 355)"/>
  <rect x="900" y="300" width="8" height="12" rx="1" fill="#d4a030" opacity="0.2" transform="rotate(-40 904 306)"/>
  <rect x="1200" y="320" width="6" height="10" rx="1" fill="#c89828" opacity="0.18" transform="rotate(25 1203 325)"/>
  <!-- Elegant border -->
  <rect x="80" y="80" width="1440" height="740" rx="20" fill="none" stroke="#d4a030" stroke-width="2" opacity="0.15"/>
  <!-- Center monogram circle -->
  <circle cx="800" cy="450" r="80" fill="none" stroke="#d4a030" stroke-width="2" opacity="0.12"/>
</svg>
