<?xml version="1.0" encoding="UTF-8"?>
<svg xmlns="http://www.w3.org/2000/svg" width="1600" height="900" viewBox="0 0 1600 900">
  <defs>
    <linearGradient id="s" x1="0" y1="0" x2="0" y2="1">
      <stop offset="0%" stop-color="#f0f5f8"/>
      <stop offset="100%" stop-color="#e5eef5"/>
    </linearGradient>
  </defs>
  <rect width="1600" height="900" fill="url(#s)"/>
  <!-- Garden path -->
  <path d="M800 900 Q790 700 810 500 Q830 350 800 250" fill="none" stroke="#d4c8b0" stroke-width="40" opacity="0.15" stroke-linecap="round"/>
  <!-- Garden flowers on both sides -->
  <circle cx="600" cy="500" r="15" fill="#e8a0b0" opacity="0.25"/>
  <circle cx="560" cy="550" r="12" fill="#f0b0c0" opacity="0.22"/>
  <circle cx="640" cy="580" r="13" fill="#d49098" opacity="0.2"/>
  <circle cx="580" cy="650" r="14" fill="#e8a0b0" opacity="0.25"/>
  <circle cx="1000" cy="500" r="15" fill="#e8a0b0" opacity="0.25"/>
  <circle cx="1040" cy="550" r="12" fill="#f0b0c0" opacity="0.22"/>
  <circle cx="960" cy="580" r="13" fill="#d49098" opacity="0.2"/>
  <circle cx="1020" cy="650" r="14" fill="#e8a0b0" opacity="0.25"/>
  <!-- Leaves -->
  <ellipse cx="620" cy="530" rx="10" ry="5" fill="#8aae6a" opacity="0.2" transform="rotate(20 620 530)"/>
  <ellipse cx="980" cy="530" rx="10" ry="5" fill="#8aae6a" opacity="0.2" transform="rotate(-20 980 530)"/>
  <!-- Sky clouds -->
  <ellipse cx="400" cy="150" rx="120" ry="50" fill="#fff" opacity="0.4"/>
  <ellipse cx="1200" cy="180" rx="100" ry="40" fill="#fff" opacity="0.35"/>
</svg>
