<svg xmlns="http://www.w3.org/2000/svg" width="280" height="280" viewBox="0 0 280 280" fill="none">
  <defs>
    <radialGradient id="gpet-memorial-5" cx="0" cy="0" r="1" gradientUnits="userSpaceOnUse" gradientTransform="translate(84 78) rotate(38) scale(248)">
      <stop stop-color="#fbf9ff"/>
      <stop offset="0.58" stop-color="#efe8f7"/>
      <stop offset="1" stop-color="#cdb9e5"/>
    </radialGradient>
  </defs>
  <rect width="280" height="280" rx="140" fill="url(#gpet-memorial-5)"/>
  <circle cx="140" cy="140" r="139" stroke="#a58ac9" stroke-opacity="0.12" stroke-width="2"/>
  
  <circle cx="110" cy="102" r="18" fill="#cdb9e5" fill-opacity="0.2"/>
  <circle cx="146" cy="90" r="16" fill="#cdb9e5" fill-opacity="0.2"/>
  <circle cx="176" cy="108" r="18" fill="#cdb9e5" fill-opacity="0.2"/>
  <path d="M99 162c0-24 18-42 41-42 24 0 42 18 42 42 0 22-19 34-42 34-22 0-41-12-41-34Z" fill="#fbf9ff" opacity="0.94"/>
  <path d="M92 206c29-14 60-21 92-21 30 0 54 5 72 14" fill="none" stroke="#a58ac9" stroke-opacity="0.16" stroke-width="8" stroke-linecap="round"/>
    
</svg>
