<?xml version="1.0" encoding="UTF-8"?>
<svg xmlns="http://www.w3.org/2000/svg" width="512" height="512" viewBox="0 0 512 512">
  <defs>
    <linearGradient id="bg" x1="0" y1="0" x2="0" y2="1">
      <stop offset="0%" stop-color="#f0e8d8"/>
      <stop offset="100%" stop-color="#e5d8c0"/>
    </linearGradient>
  </defs>
  <rect width="512" height="512" fill="url(#bg)"/>
  <!-- Shield/crest shape -->
  <path d="M256 150 L340 200 L340 310 C340 370 256 400 256 400 C256 400 172 370 172 310 L172 200Z" fill="#c4a060" opacity="0.3"/>
  <path d="M256 170 L320 210 L320 300 C320 350 256 375 256 375 C256 375 192 350 192 300 L192 210Z" fill="#d4b070" opacity="0.25"/>
  <!-- Inner pattern -->
  <line x1="256" y1="200" x2="256" y2="360" stroke="#c4a060" stroke-width="2" opacity="0.3"/>
  <line x1="200" y1="270" x2="312" y2="270" stroke="#c4a060" stroke-width="2" opacity="0.3"/>
  <!-- Crown on top -->
  <polygon points="230,155 240,135 250,150 256,130 262,150 272,135 282,155" fill="#d4a030" opacity="0.4"/>
</svg>
