<?xml version="1.0" encoding="UTF-8"?>
<svg xmlns="http://www.w3.org/2000/svg" width="512" height="512" viewBox="0 0 512 512">
  <defs>
    <linearGradient id="bg" x1="0" y1="0" x2="0" y2="1">
      <stop offset="0%" stop-color="#f8f0e5"/>
      <stop offset="100%" stop-color="#f0e5d5"/>
    </linearGradient>
  </defs>
  <rect width="512" height="512" fill="url(#bg)"/>
  <!-- Open book -->
  <path d="M256 220 Q200 230 160 250 L160 360 Q200 340 256 330Z" fill="#d4c4a0" opacity="0.4"/>
  <path d="M256 220 Q312 230 352 250 L352 360 Q312 340 256 330Z" fill="#c8b890" opacity="0.4"/>
  <!-- Pages lines -->
  <line x1="185" y1="270" x2="245" y2="260" stroke="#b0a080" stroke-width="1.5" opacity="0.25"/>
  <line x1="185" y1="290" x2="245" y2="280" stroke="#b0a080" stroke-width="1.5" opacity="0.25"/>
  <line x1="185" y1="310" x2="245" y2="300" stroke="#b0a080" stroke-width="1.5" opacity="0.25"/>
  <line x1="267" y1="260" x2="327" y2="270" stroke="#b0a080" stroke-width="1.5" opacity="0.25"/>
  <line x1="267" y1="280" x2="327" y2="290" stroke="#b0a080" stroke-width="1.5" opacity="0.25"/>
  <line x1="267" y1="300" x2="327" y2="310" stroke="#b0a080" stroke-width="1.5" opacity="0.25"/>
  <!-- Spine -->
  <line x1="256" y1="218" x2="256" y2="332" stroke="#a09070" stroke-width="2" opacity="0.35"/>
  <!-- Quill -->
  <path d="M310 190 Q320 210 315 240" fill="none" stroke="#8b6f47" stroke-width="2" opacity="0.3"/>
  <path d="M310 190 Q305 185 315 175 Q320 185 310 190Z" fill="#8b6f47" opacity="0.35"/>
</svg>
