<?xml version="1.0" encoding="UTF-8"?>
<svg xmlns="http://www.w3.org/2000/svg" width="512" height="512" viewBox="0 0 512 512">
  <defs>
    <linearGradient id="bg" x1="0" y1="0" x2="0" y2="1">
      <stop offset="0%" stop-color="#f5f0e8"/>
      <stop offset="100%" stop-color="#e8ddd0"/>
    </linearGradient>
  </defs>
  <rect width="512" height="512" fill="url(#bg)"/>
  <!-- Lotus flower -->
  <ellipse cx="256" cy="340" rx="40" ry="15" fill="#d4a574" opacity="0.3"/>
  <path d="M256 320 C240 280 220 240 256 200 C292 240 272 280 256 320Z" fill="#e8b4b8" opacity="0.6"/>
  <path d="M256 320 C230 290 200 260 220 220 C260 240 250 290 256 320Z" fill="#dda0a8" opacity="0.5"/>
  <path d="M256 320 C282 290 312 260 292 220 C252 240 262 290 256 320Z" fill="#dda0a8" opacity="0.5"/>
  <path d="M256 320 C215 300 180 280 195 240 C240 250 240 295 256 320Z" fill="#d49098" opacity="0.4"/>
  <path d="M256 320 C297 300 332 280 317 240 C272 250 272 295 256 320Z" fill="#d49098" opacity="0.4"/>
  <!-- Candle glow -->
  <circle cx="256" cy="180" r="30" fill="#f0c860" opacity="0.15"/>
  <circle cx="256" cy="180" r="15" fill="#f0c860" opacity="0.2"/>
</svg>
