<?xml version="1.0" encoding="UTF-8"?>
<svg xmlns="http://www.w3.org/2000/svg" width="512" height="512" viewBox="0 0 512 512">
  <defs>
    <linearGradient id="bg" x1="0" y1="0" x2="0" y2="1">
      <stop offset="0%" stop-color="#f8f0f5"/>
      <stop offset="100%" stop-color="#f0e5ec"/>
    </linearGradient>
  </defs>
  <rect width="512" height="512" fill="url(#bg)"/>
  <!-- Dove -->
  <path d="M256 250 C240 230 200 210 180 230 C160 250 200 260 230 255 L256 250Z" fill="#c4b0c8" opacity="0.5"/>
  <path d="M256 250 C272 230 312 210 332 230 C352 250 312 260 282 255 L256 250Z" fill="#c4b0c8" opacity="0.5"/>
  <ellipse cx="256" cy="268" rx="30" ry="22" fill="#c4b0c8" opacity="0.55"/>
  <circle cx="246" cy="260" r="3" fill="#8a708e" opacity="0.5"/>
  <!-- Olive branch -->
  <path d="M280 280 Q310 300 340 290" fill="none" stroke="#8aae7a" stroke-width="2" opacity="0.4"/>
  <ellipse cx="310" cy="292" rx="8" ry="4" fill="#8aae7a" opacity="0.35" transform="rotate(-10 310 292)"/>
  <ellipse cx="330" cy="288" rx="7" ry="3.5" fill="#8aae7a" opacity="0.3" transform="rotate(-20 330 288)"/>
  <!-- Rays of light -->
  <line x1="256" y1="180" x2="256" y2="200" stroke="#f0c860" stroke-width="2" opacity="0.2"/>
  <line x1="220" y1="195" x2="230" y2="210" stroke="#f0c860" stroke-width="1.5" opacity="0.15"/>
  <line x1="292" y1="195" x2="282" y2="210" stroke="#f0c860" stroke-width="1.5" opacity="0.15"/>
</svg>
