<?xml version="1.0" encoding="UTF-8"?>
<svg xmlns="http://www.w3.org/2000/svg" width="512" height="512" viewBox="0 0 512 512">
  <defs>
    <linearGradient id="bg" x1="0" y1="0" x2="0" y2="1">
      <stop offset="0%" stop-color="#fce4ec"/>
      <stop offset="100%" stop-color="#f8d0da"/>
    </linearGradient>
  </defs>
  <rect width="512" height="512" fill="url(#bg)"/>
  <!-- Two hearts interlinked -->
  <path d="M220 280 C220 280 180 240 180 215 C180 190 200 175 220 195 L235 212 L250 195 C270 175 290 190 290 215 C290 240 250 280 220 280Z" fill="#e87a9a" opacity="0.45"/>
  <path d="M292 270 C292 270 252 230 252 205 C252 180 272 165 292 185 L307 202 L322 185 C342 165 362 180 362 205 C362 230 322 270 292 270Z" fill="#d46a8a" opacity="0.4"/>
  <!-- Sparkles -->
  <circle cx="200" cy="170" r="3" fill="#f0c860" opacity="0.4"/>
  <circle cx="340" cy="160" r="2.5" fill="#f0c860" opacity="0.35"/>
  <circle cx="260" cy="140" r="2" fill="#f0c860" opacity="0.3"/>
</svg>
