<?xml version="1.0" encoding="UTF-8"?>
<svg xmlns="http://www.w3.org/2000/svg" width="512" height="512" viewBox="0 0 512 512">
  <defs>
    <linearGradient id="bg" x1="0" y1="0" x2="0" y2="1">
      <stop offset="0%" stop-color="#fff0f5"/>
      <stop offset="100%" stop-color="#ffe0ec"/>
    </linearGradient>
  </defs>
  <rect width="512" height="512" fill="url(#bg)"/>
  <!-- Rose -->
  <circle cx="256" cy="260" r="35" fill="#e87a9a" opacity="0.5"/>
  <path d="M256 225 C240 240 235 260 256 260 C277 260 272 240 256 225Z" fill="#d46a8a" opacity="0.45"/>
  <path d="M221 260 C235 245 256 242 256 260 C256 278 235 275 221 260Z" fill="#c85a7a" opacity="0.4"/>
  <path d="M291 260 C277 245 256 242 256 260 C256 278 277 275 291 260Z" fill="#c85a7a" opacity="0.4"/>
  <path d="M256 295 C240 280 235 260 256 260 C277 260 272 280 256 295Z" fill="#d46a8a" opacity="0.4"/>
  <!-- Stem -->
  <path d="M256 295 Q258 340 254 380" fill="none" stroke="#6a9e5a" stroke-width="3" opacity="0.4"/>
  <!-- Leaves -->
  <ellipse cx="240" cy="340" rx="15" ry="8" fill="#6a9e5a" opacity="0.35" transform="rotate(-30 240 340)"/>
  <ellipse cx="272" cy="355" rx="15" ry="8" fill="#6a9e5a" opacity="0.3" transform="rotate(25 272 355)"/>
</svg>
