<?xml version="1.0" encoding="UTF-8"?>
<svg xmlns="http://www.w3.org/2000/svg" width="512" height="512" viewBox="0 0 512 512">
  <defs>
    <linearGradient id="bg" x1="0" y1="0" x2="0" y2="1">
      <stop offset="0%" stop-color="#fef5e7"/>
      <stop offset="100%" stop-color="#fce8d0"/>
    </linearGradient>
  </defs>
  <rect width="512" height="512" fill="url(#bg)"/>
  <!-- Two birds on branch -->
  <path d="M160 320 Q256 300 352 320" fill="none" stroke="#8b6f47" stroke-width="4" opacity="0.35"/>
  <!-- Bird 1 -->
  <ellipse cx="220" cy="290" rx="22" ry="18" fill="#e8a070" opacity="0.5"/>
  <circle cx="210" cy="282" r="12" fill="#e8a070" opacity="0.55"/>
  <circle cx="206" cy="280" r="2.5" fill="#5a3a20" opacity="0.5"/>
  <polygon points="198,282 188,280 198,285" fill="#d48050" opacity="0.5"/>
  <!-- Bird 2 -->
  <ellipse cx="295" cy="295" rx="22" ry="18" fill="#a8c0d8" opacity="0.5"/>
  <circle cx="305" cy="287" r="12" fill="#a8c0d8" opacity="0.55"/>
  <circle cx="309" cy="285" r="2.5" fill="#3a5070" opacity="0.5"/>
  <polygon points="317,287 327,285 317,290" fill="#88a0b8" opacity="0.5"/>
  <!-- Heart between -->
  <path d="M258 265 C258 265 252 258 252 254 C252 249 255 247 259 251 L258 254 L262 251 C255 247 264 249 264 254 C264 258 258 265 258 265Z" fill="#e87a9a" opacity="0.4" transform="scale(1.3) translate(-58 -52)"/>
</svg>
