<?xml version="1.0" encoding="UTF-8"?>
<svg xmlns="http://www.w3.org/2000/svg" width="512" height="512" viewBox="0 0 512 512">
  <defs>
    <linearGradient id="bg" x1="0" y1="0" x2="0" y2="1">
      <stop offset="0%" stop-color="#fff8f0"/>
      <stop offset="100%" stop-color="#f8f0e8"/>
    </linearGradient>
  </defs>
  <rect width="512" height="512" fill="url(#bg)"/>
  <!-- Bouquet -->
  <circle cx="240" cy="240" r="22" fill="#e8a0b0" opacity="0.5"/>
  <circle cx="270" cy="230" r="20" fill="#f0b0c0" opacity="0.45"/>
  <circle cx="256" cy="260" r="23" fill="#d49098" opacity="0.45"/>
  <circle cx="230" cy="255" r="18" fill="#f0b0c0" opacity="0.4"/>
  <circle cx="280" cy="255" r="19" fill="#e8a0b0" opacity="0.42"/>
  <circle cx="256" cy="225" r="18" fill="#f5c0d0" opacity="0.4"/>
  <!-- Leaves -->
  <ellipse cx="210" cy="280" rx="18" ry="8" fill="#7a9e5a" opacity="0.35" transform="rotate(-40 210 280)"/>
  <ellipse cx="300" cy="275" rx="18" ry="8" fill="#7a9e5a" opacity="0.3" transform="rotate(35 300 275)"/>
  <ellipse cx="200" cy="245" rx="14" ry="6" fill="#8aae6a" opacity="0.25" transform="rotate(-55 200 245)"/>
  <ellipse cx="310" cy="240" rx="14" ry="6" fill="#8aae6a" opacity="0.25" transform="rotate(50 310 240)"/>
  <!-- Ribbon -->
  <path d="M256 290 Q248 320 235 350" fill="none" stroke="#c4a060" stroke-width="3" opacity="0.3"/>
  <path d="M256 290 Q264 320 277 350" fill="none" stroke="#c4a060" stroke-width="3" opacity="0.3"/>
</svg>
