<?xml version="1.0" encoding="UTF-8"?>
<svg xmlns="http://www.w3.org/2000/svg" width="512" height="512" viewBox="0 0 512 512">
  <defs>
    <linearGradient id="bg" x1="0" y1="0" x2="0" y2="1">
      <stop offset="0%" stop-color="#fef8f0"/>
      <stop offset="100%" stop-color="#f8ede0"/>
    </linearGradient>
  </defs>
  <rect width="512" height="512" fill="url(#bg)"/>
  <!-- Wedding cake tiers -->
  <rect x="206" y="300" width="100" height="40" rx="6" fill="#f0e0d0" opacity="0.5"/>
  <rect x="218" y="260" width="76" height="40" rx="6" fill="#f5e8d8" opacity="0.5"/>
  <rect x="232" y="225" width="48" height="35" rx="6" fill="#f8f0e0" opacity="0.5"/>
  <!-- Decorative dots on cake -->
  <circle cx="230" cy="318" r="3" fill="#e8a0b0" opacity="0.35"/>
  <circle cx="256" cy="318" r="3" fill="#e8a0b0" opacity="0.35"/>
  <circle cx="282" cy="318" r="3" fill="#e8a0b0" opacity="0.35"/>
  <circle cx="240" cy="278" r="2.5" fill="#e8a0b0" opacity="0.3"/>
  <circle cx="256" cy="278" r="2.5" fill="#e8a0b0" opacity="0.3"/>
  <circle cx="272" cy="278" r="2.5" fill="#e8a0b0" opacity="0.3"/>
  <!-- Topper heart -->
  <path d="M256 225 C256 225 248 215 248 210 C248 205 252 202 256 207 C260 202 264 205 264 210 C264 215 256 225 256 225Z" fill="#e87a9a" opacity="0.45"/>
  <!-- Plate -->
  <ellipse cx="256" cy="342" rx="60" ry="8" fill="#d4c4a8" opacity="0.3"/>
</svg>
