<?xml version="1.0" encoding="UTF-8"?>
<svg xmlns="http://www.w3.org/2000/svg" width="1600" height="900" viewBox="0 0 1600 900">
  <defs>
    <linearGradient id="s" x1="0" y1="0" x2="0" y2="1">
      <stop offset="0%" stop-color="#e8f0e8"/>
      <stop offset="100%" stop-color="#d8e8d8"/>
    </linearGradient>
  </defs>
  <rect width="1600" height="900" fill="url(#s)"/>
  <!-- Rolling hills -->
  <path d="M0 500 Q200 400 500 450 Q800 500 1100 420 Q1400 350 1600 430 L1600 900 L0 900Z" fill="#7a9e5a" opacity="0.15"/>
  <path d="M0 600 Q300 530 600 570 Q900 610 1200 540 Q1500 480 1600 550 L1600 900 L0 900Z" fill="#6a8e4a" opacity="0.15"/>
  <path d="M0 700 Q400 670 800 700 Q1200 730 1600 690 L1600 900 L0 900Z" fill="#5a7e3a" opacity="0.15"/>
  <!-- Path/road -->
  <path d="M800 900 Q780 700 820 550 Q850 400 800 300" fill="none" stroke="#c8b890" stroke-width="20" opacity="0.15" stroke-linecap="round"/>
  <!-- Scattered trees -->
  <g opacity="0.25">
    <rect x="300" y="500" width="8" height="40" rx="2" fill="#8b6f47"/>
    <circle cx="304" cy="485" r="25" fill="#6a8e4a"/>
  </g>
  <g opacity="0.2">
    <rect x="1200" y="460" width="8" height="40" rx="2" fill="#8b6f47"/>
    <circle cx="1204" cy="445" r="25" fill="#7a9e5a"/>
  </g>
</svg>
