<?xml version="1.0" encoding="UTF-8"?>
<svg xmlns="http://www.w3.org/2000/svg" width="1600" height="900" viewBox="0 0 1600 900">
  <defs>
    <linearGradient id="s" x1="0" y1="0" x2="0" y2="1">
      <stop offset="0%" stop-color="#fce4ec"/>
      <stop offset="100%" stop-color="#f8d0da"/>
    </linearGradient>
  </defs>
  <rect width="1600" height="900" fill="url(#s)"/>
  <!-- Scattered rose petals -->
  <ellipse cx="300" cy="300" rx="25" ry="15" fill="#e8a0b0" opacity="0.3" transform="rotate(30 300 300)"/>
  <ellipse cx="700" cy="200" rx="20" ry="12" fill="#d49098" opacity="0.25" transform="rotate(-20 700 200)"/>
  <ellipse cx="1100" cy="350" rx="22" ry="13" fill="#e8a0b0" opacity="0.28" transform="rotate(45 1100 350)"/>
  <ellipse cx="1400" cy="250" rx="18" ry="10" fill="#d49098" opacity="0.2" transform="rotate(-35 1400 250)"/>
  <ellipse cx="500" cy="500" rx="20" ry="12" fill="#f0b0c0" opacity="0.22" transform="rotate(60 500 500)"/>
  <ellipse cx="900" cy="450" rx="15" ry="9" fill="#e8a0b0" opacity="0.2" transform="rotate(-15 900 450)"/>
  <!-- Soft bokeh circles -->
  <circle cx="200" cy="600" r="40" fill="#e87a9a" opacity="0.06"/>
  <circle cx="600" cy="700" r="50" fill="#d46a8a" opacity="0.05"/>
  <circle cx="1000" cy="650" r="45" fill="#e87a9a" opacity="0.06"/>
  <circle cx="1400" cy="600" r="35" fill="#c85a7a" opacity="0.05"/>
</svg>
