<?xml version="1.0" encoding="UTF-8"?>
<svg xmlns="http://www.w3.org/2000/svg" width="1600" height="900" viewBox="0 0 1600 900">
  <defs>
    <linearGradient id="s" x1="0" y1="0" x2="0" y2="1">
      <stop offset="0%" stop-color="#ffecd2"/>
      <stop offset="100%" stop-color="#fcb69f"/>
    </linearGradient>
  </defs>
  <rect width="1600" height="900" fill="url(#s)"/>
  <!-- Sunset glow -->
  <circle cx="800" cy="600" r="300" fill="#fff" opacity="0.1"/>
  <circle cx="800" cy="600" r="200" fill="#fff" opacity="0.08"/>
  <!-- Gentle waves -->
  <path d="M0 650 Q200 620 400 650 Q600 680 800 650 Q1000 620 1200 650 Q1400 680 1600 650 L1600 900 L0 900Z" fill="#e8a080" opacity="0.15"/>
  <path d="M0 700 Q200 680 400 700 Q600 720 800 700 Q1000 680 1200 700 Q1400 720 1600 700 L1600 900 L0 900Z" fill="#d49070" opacity="0.12"/>
  <!-- Birds -->
  <path d="M600 250 Q610 240 620 250" fill="none" stroke="#8b5e3c" stroke-width="2" opacity="0.2"/>
  <path d="M640 240 Q650 230 660 240" fill="none" stroke="#8b5e3c" stroke-width="2" opacity="0.18"/>
  <path d="M670 255 Q678 247 686 255" fill="none" stroke="#8b5e3c" stroke-width="1.5" opacity="0.15"/>
</svg>
