<?xml version="1.0" encoding="UTF-8"?>
<svg xmlns="http://www.w3.org/2000/svg" width="1600" height="900" viewBox="0 0 1600 900">
  <defs>
    <linearGradient id="s" x1="0" y1="0" x2="0" y2="1">
      <stop offset="0%" stop-color="#f5e8f0"/>
      <stop offset="100%" stop-color="#e8d5e0"/>
    </linearGradient>
  </defs>
  <rect width="1600" height="900" fill="url(#s)"/>
  <!-- Floral garland top -->
  <path d="M0 200 Q400 120 800 180 Q1200 240 1600 160" fill="none" stroke="#c87090" stroke-width="3" opacity="0.2"/>
  <!-- Flowers along garland -->
  <circle cx="200" cy="175" r="15" fill="#e8a0b0" opacity="0.3"/>
  <circle cx="400" cy="145" r="12" fill="#d49098" opacity="0.28"/>
  <circle cx="600" cy="165" r="14" fill="#e8a0b0" opacity="0.25"/>
  <circle cx="800" cy="178" r="13" fill="#f0b0c0" opacity="0.3"/>
  <circle cx="1000" cy="200" r="12" fill="#d49098" opacity="0.25"/>
  <circle cx="1200" cy="215" r="14" fill="#e8a0b0" opacity="0.28"/>
  <circle cx="1400" cy="180" r="11" fill="#f0b0c0" opacity="0.22"/>
  <!-- Leaves -->
  <ellipse cx="300" cy="160" rx="10" ry="5" fill="#8aae6a" opacity="0.2" transform="rotate(30 300 160)"/>
  <ellipse cx="500" cy="150" rx="10" ry="5" fill="#8aae6a" opacity="0.18" transform="rotate(-20 500 150)"/>
  <ellipse cx="700" cy="170" rx="10" ry="5" fill="#8aae6a" opacity="0.2" transform="rotate(15 700 170)"/>
  <ellipse cx="900" cy="188" rx="10" ry="5" fill="#8aae6a" opacity="0.18" transform="rotate(-25 900 188)"/>
  <ellipse cx="1100" cy="208" rx="10" ry="5" fill="#8aae6a" opacity="0.2" transform="rotate(20 1100 208)"/>
  <ellipse cx="1300" cy="195" rx="10" ry="5" fill="#8aae6a" opacity="0.18" transform="rotate(-15 1300 195)"/>
</svg>
