<?xml version="1.0" encoding="UTF-8"?>
<svg xmlns="http://www.w3.org/2000/svg" width="1600" height="900" viewBox="0 0 1600 900">
  <defs>
    <linearGradient id="s" x1="0" y1="0" x2="0" y2="1">
      <stop offset="0%" stop-color="#1a1a2e"/>
      <stop offset="50%" stop-color="#16213e"/>
      <stop offset="100%" stop-color="#1a1a3e"/>
    </linearGradient>
  </defs>
  <rect width="1600" height="900" fill="url(#s)"/>
  <!-- Stars -->
  <circle cx="200" cy="100" r="2" fill="#fff" opacity="0.6"/><circle cx="500" cy="150" r="1.5" fill="#fff" opacity="0.4"/>
  <circle cx="800" cy="80" r="2.5" fill="#fff" opacity="0.5"/><circle cx="1100" cy="120" r="2" fill="#fff" opacity="0.45"/>
  <circle cx="1400" cy="90" r="1.5" fill="#fff" opacity="0.35"/><circle cx="300" cy="250" r="1" fill="#fff" opacity="0.3"/>
  <circle cx="600" cy="200" r="1.5" fill="#fff" opacity="0.35"/><circle cx="1000" cy="200" r="1" fill="#fff" opacity="0.3"/>
  <!-- Moon -->
  <circle cx="1200" cy="200" r="60" fill="#f0e6c0" opacity="0.6"/>
  <circle cx="1220" cy="190" r="50" fill="#1a1a2e" opacity="0.7"/>
  <!-- Fireflies/bokeh -->
  <circle cx="400" cy="500" r="4" fill="#f0e060" opacity="0.2"/>
  <circle cx="600" cy="450" r="3" fill="#f0e060" opacity="0.15"/>
  <circle cx="900" cy="520" r="4" fill="#f0e060" opacity="0.18"/>
  <circle cx="1200" cy="480" r="3" fill="#f0e060" opacity="0.15"/>
  <!-- Silhouette ground -->
  <path d="M0 700 Q400 670 800 700 Q1200 730 1600 690 L1600 900 L0 900Z" fill="#0a0a1e" opacity="0.5"/>
</svg>
