<?xml version="1.0" encoding="UTF-8"?>
<svg xmlns="http://www.w3.org/2000/svg" width="512" height="512" viewBox="0 0 512 512">
  <defs>
    <linearGradient id="bg2" x1="0" y1="0" x2="0" y2="1">
      <stop offset="0%" stop-color="#e8f4f8"/>
      <stop offset="100%" stop-color="#d1ecf5"/>
    </linearGradient>
  </defs>
  <rect width="512" height="512" fill="url(#bg2)"/>
  <!-- Cat face -->
  <circle cx="256" cy="280" r="90" fill="#8bb5c9" opacity="0.6"/>
  <!-- Ears -->
  <polygon points="185,210 210,130 240,210" fill="#8bb5c9" opacity="0.65"/>
  <polygon points="272,210 302,130 327,210" fill="#8bb5c9" opacity="0.65"/>
  <!-- Inner ears -->
  <polygon points="198,208 213,150 233,208" fill="#f5a0b5" opacity="0.4"/>
  <polygon points="279,208 299,150 314,208" fill="#f5a0b5" opacity="0.4"/>
  <!-- Eyes -->
  <ellipse cx="226" cy="268" rx="14" ry="16" fill="#fff" opacity="0.9"/>
  <ellipse cx="286" cy="268" rx="14" ry="16" fill="#fff" opacity="0.9"/>
  <circle cx="226" cy="271" r="8" fill="#5a8fa8"/>
  <circle cx="286" cy="271" r="8" fill="#5a8fa8"/>
  <!-- Nose -->
  <polygon points="256,292 248,304 264,304" fill="#f5a0b5" opacity="0.8"/>
  <!-- Whiskers -->
  <line x1="170" y1="295" x2="238" y2="300" stroke="#8bb5c9" stroke-width="2" opacity="0.5"/>
  <line x1="170" y1="310" x2="238" y2="308" stroke="#8bb5c9" stroke-width="2" opacity="0.5"/>
  <line x1="274" y1="300" x2="342" y2="295" stroke="#8bb5c9" stroke-width="2" opacity="0.5"/>
  <line x1="274" y1="308" x2="342" y2="310" stroke="#8bb5c9" stroke-width="2" opacity="0.5"/>
</svg>
