<?xml version="1.0" encoding="UTF-8"?>
<svg xmlns="http://www.w3.org/2000/svg" width="1600" height="900" viewBox="0 0 1600 900">
  <defs>
    <linearGradient id="s" x1="0" y1="0" x2="0" y2="1">
      <stop offset="0%" stop-color="#f5f0e8"/>
      <stop offset="100%" stop-color="#e8ddd0"/>
    </linearGradient>
  </defs>
  <rect width="1600" height="900" fill="url(#s)"/>
  <path d="M0 600 Q400 520 800 570 Q1200 620 1600 540 L1600 900 L0 900Z" fill="#d4c4a8" opacity="0.2"/>
  <path d="M0 700 Q400 660 800 690 Q1200 720 1600 670 L1600 900 L0 900Z" fill="#c8b898" opacity="0.2"/>
  <!-- Lotus petals scattered -->
  <path d="M300 400 C285 370 275 340 300 310 C325 340 315 370 300 400Z" fill="#e8b4b8" opacity="0.3"/>
  <path d="M800 350 C785 320 775 290 800 260 C825 290 815 320 800 350Z" fill="#dda0a8" opacity="0.25"/>
  <path d="M1200 420 C1185 390 1175 360 1200 330 C1225 360 1215 390 1200 420Z" fill="#e8b4b8" opacity="0.28"/>
  <!-- Candle glow -->
  <circle cx="800" cy="500" r="60" fill="#f0c860" opacity="0.08"/>
  <circle cx="800" cy="500" r="30" fill="#f0c860" opacity="0.1"/>
</svg>
