<?xml version="1.0" encoding="UTF-8"?>
<svg xmlns="http://www.w3.org/2000/svg" width="1600" height="900" viewBox="0 0 1600 900">
  <defs>
    <linearGradient id="s" x1="0" y1="0" x2="0" y2="1">
      <stop offset="0%" stop-color="#1a1a2e"/>
      <stop offset="60%" stop-color="#16213e"/>
      <stop offset="100%" stop-color="#0f3460"/>
    </linearGradient>
  </defs>
  <rect width="1600" height="900" fill="url(#s)"/>
  <!-- Stars -->
  <circle cx="200" cy="100" r="2" fill="#fff" opacity="0.6"/>
  <circle cx="400" cy="200" r="1.5" fill="#fff" opacity="0.4"/>
  <circle cx="700" cy="80" r="2.5" fill="#fff" opacity="0.5"/>
  <circle cx="1000" cy="150" r="2" fill="#fff" opacity="0.45"/>
  <circle cx="1300" cy="100" r="1.5" fill="#fff" opacity="0.35"/>
  <circle cx="900" cy="250" r="1" fill="#fff" opacity="0.3"/>
  <circle cx="300" cy="300" r="1.5" fill="#fff" opacity="0.3"/>
  <circle cx="1400" cy="250" r="2" fill="#fff" opacity="0.4"/>
  <!-- Candle row -->
  <g opacity="0.6">
    <rect x="350" y="550" width="12" height="60" rx="3" fill="#f5e6c8"/>
    <path d="M356 550 C350 535 345 520 356 505 C367 520 362 535 356 550Z" fill="#f0a030" opacity="0.8"/>
    <circle cx="356" cy="520" r="15" fill="#f0c860" opacity="0.15"/>
  </g>
  <g opacity="0.5">
    <rect x="650" y="530" width="12" height="60" rx="3" fill="#f5e6c8"/>
    <path d="M656 530 C650 515 645 500 656 485 C667 500 662 515 656 530Z" fill="#f0a030" opacity="0.8"/>
    <circle cx="656" cy="500" r="15" fill="#f0c860" opacity="0.15"/>
  </g>
  <g opacity="0.55">
    <rect x="950" y="540" width="12" height="60" rx="3" fill="#f5e6c8"/>
    <path d="M956 540 C950 525 945 510 956 495 C967 510 962 525 956 540Z" fill="#f0a030" opacity="0.8"/>
    <circle cx="956" cy="510" r="15" fill="#f0c860" opacity="0.15"/>
  </g>
  <g opacity="0.45">
    <rect x="1250" y="560" width="12" height="60" rx="3" fill="#f5e6c8"/>
    <path d="M1256 560 C1250 545 1245 530 1256 515 C1267 530 1262 545 1256 560Z" fill="#f0a030" opacity="0.8"/>
    <circle cx="1256" cy="530" r="15" fill="#f0c860" opacity="0.15"/>
  </g>
  <!-- Ground -->
  <path d="M0 700 Q400 680 800 700 Q1200 720 1600 690 L1600 900 L0 900Z" fill="#0a1628" opacity="0.6"/>
</svg>
