<?xml version="1.0" encoding="UTF-8"?>
<svg xmlns="http://www.w3.org/2000/svg" width="1600" height="900" viewBox="0 0 1600 900">
  <defs>
    <linearGradient id="s" x1="0" y1="0" x2="0" y2="1">
      <stop offset="0%" stop-color="#e8eef5"/>
      <stop offset="100%" stop-color="#f0f4f8"/>
    </linearGradient>
  </defs>
  <rect width="1600" height="900" fill="url(#s)"/>
  <!-- Clouds -->
  <ellipse cx="400" cy="300" rx="200" ry="80" fill="#fff" opacity="0.5"/>
  <ellipse cx="520" cy="280" rx="120" ry="60" fill="#fff" opacity="0.4"/>
  <ellipse cx="1100" cy="350" rx="180" ry="70" fill="#fff" opacity="0.45"/>
  <ellipse cx="1220" cy="330" rx="100" ry="50" fill="#fff" opacity="0.35"/>
  <!-- Light rays -->
  <polygon points="800,0 700,500 900,500" fill="#f0c860" opacity="0.06"/>
  <polygon points="600,0 550,400 700,400" fill="#f0c860" opacity="0.04"/>
  <polygon points="1000,0 900,400 1050,400" fill="#f0c860" opacity="0.04"/>
  <!-- Distant mountains -->
  <path d="M0 650 Q300 520 600 600 Q900 680 1200 560 Q1400 490 1600 580 L1600 900 L0 900Z" fill="#c4d0e0" opacity="0.3"/>
  <path d="M0 750 Q400 700 800 730 Q1200 760 1600 720 L1600 900 L0 900Z" fill="#b8c8d8" opacity="0.25"/>
</svg>
