<?xml version="1.0" encoding="UTF-8"?>
<svg xmlns="http://www.w3.org/2000/svg" width="1600" height="900" viewBox="0 0 1600 900">
  <defs>
    <linearGradient id="s" x1="0" y1="0" x2="0" y2="1">
      <stop offset="0%" stop-color="#f8f0f5"/>
      <stop offset="100%" stop-color="#f0e5ec"/>
    </linearGradient>
  </defs>
  <rect width="1600" height="900" fill="url(#s)"/>
  <!-- Cherry blossom branches -->
  <path d="M0 300 Q200 250 400 300 Q600 350 700 280" fill="none" stroke="#8a6070" stroke-width="4" opacity="0.3"/>
  <path d="M400 300 Q420 260 450 280" fill="none" stroke="#8a6070" stroke-width="2" opacity="0.25"/>
  <!-- Blossoms -->
  <circle cx="250" cy="270" r="12" fill="#f0b0c0" opacity="0.5"/>
  <circle cx="400" cy="295" r="10" fill="#e8a0b0" opacity="0.45"/>
  <circle cx="550" cy="320" r="11" fill="#f0b0c0" opacity="0.4"/>
  <circle cx="680" cy="278" r="9" fill="#e8a0b0" opacity="0.35"/>
  <circle cx="320" cy="280" r="8" fill="#f5c0d0" opacity="0.4"/>
  <!-- Falling petals -->
  <ellipse cx="350" cy="450" rx="5" ry="3" fill="#f0b0c0" opacity="0.3" transform="rotate(30 350 450)"/>
  <ellipse cx="500" cy="500" rx="4" ry="2.5" fill="#e8a0b0" opacity="0.25" transform="rotate(-20 500 500)"/>
  <ellipse cx="650" cy="420" rx="4" ry="2" fill="#f5c0d0" opacity="0.2" transform="rotate(45 650 420)"/>
  <ellipse cx="200" cy="520" rx="5" ry="3" fill="#f0b0c0" opacity="0.2" transform="rotate(60 200 520)"/>
  <!-- Water -->
  <path d="M0 700 Q400 680 800 700 Q1200 720 1600 690 L1600 900 L0 900Z" fill="#c4d0e0" opacity="0.2"/>
</svg>
