<?xml version="1.0" encoding="UTF-8"?>
<svg xmlns="http://www.w3.org/2000/svg" width="512" height="512" viewBox="0 0 512 512">
  <defs>
    <linearGradient id="bg" x1="0" y1="0" x2="0" y2="1">
      <stop offset="0%" stop-color="#fff5e5"/>
      <stop offset="100%" stop-color="#ffe8c8"/>
    </linearGradient>
  </defs>
  <rect width="512" height="512" fill="url(#bg)"/>
  <!-- Campfire -->
  <path d="M256 310 C240 280 225 250 256 210 C287 250 272 280 256 310Z" fill="#e87830" opacity="0.45"/>
  <path d="M256 310 C245 285 235 260 256 228 C277 260 267 285 256 310Z" fill="#f0a030" opacity="0.5"/>
  <path d="M256 305 C250 290 245 275 256 250 C267 275 262 290 256 305Z" fill="#f0c860" opacity="0.55"/>
  <!-- Logs -->
  <rect x="210" y="315" width="92" height="12" rx="4" fill="#8b6f47" opacity="0.35" transform="rotate(-5 256 321)"/>
  <rect x="215" y="325" width="82" height="12" rx="4" fill="#7a5f37" opacity="0.3" transform="rotate(5 256 331)"/>
  <!-- Sparks -->
  <circle cx="240" cy="200" r="2" fill="#f0a030" opacity="0.35"/>
  <circle cx="270" cy="195" r="2" fill="#f0c860" opacity="0.3"/>
  <circle cx="250" cy="185" r="1.5" fill="#f0a030" opacity="0.25"/>
</svg>
