<?xml version="1.0" encoding="UTF-8"?>
<svg xmlns="http://www.w3.org/2000/svg" width="512" height="512" viewBox="0 0 512 512">
  <defs>
    <linearGradient id="bg" x1="0" y1="0" x2="0" y2="1">
      <stop offset="0%" stop-color="#f5e8f5"/>
      <stop offset="100%" stop-color="#e8d8e8"/>
    </linearGradient>
  </defs>
  <rect width="512" height="512" fill="url(#bg)"/>
  <!-- Puzzle pieces fitting together -->
  <path d="M220 220 L220 250 Q235 245 235 260 Q235 275 220 270 L220 300 L260 300 L260 285 Q275 285 275 270 Q275 255 260 255 L260 220Z" fill="#c090d0" opacity="0.4"/>
  <path d="M265 220 L265 250 Q250 250 250 265 Q250 280 265 275 L265 300 L305 300 L305 270 Q290 270 290 255 Q290 240 305 245 L305 220Z" fill="#a070b0" opacity="0.35"/>
  <!-- Glow at connection point -->
  <circle cx="256" cy="260" r="15" fill="#d0a0e0" opacity="0.15"/>
</svg>
